<?xml version="1.0" standalone="no"?>
<!DOCTYPE svg PUBLIC "-//W3C//DTD SVG 20010904//EN"
 "http://www.w3.org/TR/2001/REC-SVG-20010904/DTD/svg10.dtd">
<svg version="1.0" xmlns="http://www.w3.org/2000/svg"
 width="310.000000pt" height="310.000000pt" viewBox="0 0 310.000000 310.000000"
 preserveAspectRatio="xMidYMid meet">
<metadata>
Created by potrace 1.11, written by Peter Selinger 2001-2013
</metadata>
<g transform="translate(0.000000,310.000000) scale(0.100000,-0.100000)"
fill="#000000" stroke="none">
<path d="M90 3077 c-30 -16 -51 -37 -67 -67 l-23 -43 0 -1415 c0 -1392 0
-1416 20 -1456 11 -23 36 -52 57 -66 l37 -25 1436 0 1436 0 37 25 c21 14 46
43 57 66 20 40 20 64 20 1454 0 1390 0 1414 -20 1454 -11 23 -36 52 -57 66
l-37 25 -1426 3 -1426 2 -44 -23z"/>
</g>
</svg>
